<svg width="132" height="41" viewBox="0 0 132 41" fill="none" xmlns="http://www.w3.org/2000/svg">
<path d="M12.6925 7.50008C12.7305 7.50007 12.7685 7.50007 12.8077 7.50006C12.9326 7.50009 13.0574 7.50037 13.1823 7.50066C13.2692 7.50072 13.3561 7.50077 13.443 7.50081C13.6711 7.50095 13.8991 7.50131 14.1272 7.50171C14.3602 7.50208 14.5932 7.50225 14.8262 7.50243C15.2829 7.50282 15.7396 7.50344 16.1963 7.50421C15.9896 8.08691 15.7805 8.66852 15.5636 9.24752C15.4893 9.4459 15.4153 9.64438 15.3412 9.84284C15.3252 9.88548 15.3093 9.92813 15.2929 9.97206C15.0991 10.491 14.9064 11.0102 14.7136 11.5295C14.6632 11.6651 14.6129 11.8008 14.5625 11.9364C14.4909 12.1292 14.4193 12.322 14.3477 12.5148C14.2175 12.8655 14.0872 13.2163 13.957 13.567C13.9424 13.6062 13.9424 13.6062 13.9275 13.6463C13.8784 13.7784 13.8294 13.9106 13.7803 14.0427C13.6917 14.2813 13.603 14.5199 13.5144 14.7585C13.4651 14.8912 13.4158 15.0239 13.3665 15.1566C13.3468 15.2097 13.3271 15.2628 13.3074 15.3158C13.268 15.422 13.2285 15.5282 13.1891 15.6343C13.1793 15.6606 13.1696 15.6869 13.1595 15.7139C13.1398 15.767 13.1201 15.8201 13.1004 15.8732C13.0511 16.0059 13.0018 16.1387 12.9525 16.2714C12.864 16.5095 12.7756 16.7476 12.6871 16.9857C12.6382 17.1174 12.5893 17.2491 12.5404 17.3808C12.5307 17.4069 12.521 17.433 12.511 17.4599C12.378 17.8179 12.2452 18.176 12.1124 18.534C12.0386 18.7332 11.9647 18.9324 11.8908 19.1315C11.8411 19.2658 11.7913 19.4 11.7416 19.5343C11.4602 20.2942 11.1728 21.0516 10.8825 21.8081C11.447 21.8081 12.0115 21.8081 12.5931 21.8081C12.6472 21.6279 12.6472 21.6279 12.7023 21.4441C12.7229 21.3826 12.7441 21.3211 12.7663 21.2601C12.7776 21.2288 12.7889 21.1976 12.8006 21.1654C12.8125 21.1328 12.8245 21.1002 12.8368 21.0667C12.8496 21.0317 12.8624 20.9967 12.8756 20.9606C12.9026 20.8868 12.9297 20.8131 12.9569 20.7394C12.9975 20.629 13.0376 20.5185 13.0776 20.408C13.5989 18.984 14.3481 17.8375 15.7558 17.1766C16.0031 17.0671 16.261 16.9931 16.5239 16.931C16.5581 16.9219 16.5924 16.9128 16.6277 16.9035C17.0772 16.7972 17.5234 16.8079 17.983 16.8111C18.0704 16.8113 18.1577 16.8115 18.2451 16.8116C18.4732 16.812 18.7014 16.8131 18.9295 16.8143C19.163 16.8154 19.3965 16.8159 19.63 16.8164C20.0869 16.8176 20.5438 16.8195 21.0007 16.8218C20.7298 17.5998 20.7298 17.5998 20.603 17.9373C20.5906 17.9704 20.5782 18.0036 20.5655 18.0378C20.5388 18.1092 20.5121 18.1806 20.4853 18.2519C20.4096 18.4542 20.3341 18.6566 20.2585 18.859C20.2422 18.9025 20.226 18.9461 20.2092 18.9909C20.0145 19.5124 19.8208 20.0342 19.627 20.556C19.5767 20.6916 19.5264 20.8271 19.476 20.9627C19.4044 21.1555 19.3328 21.3484 19.2612 21.5412C19.131 21.8919 19.0007 22.2426 18.8705 22.5933C18.8607 22.6195 18.851 22.6457 18.841 22.6727C18.7919 22.8048 18.7429 22.9369 18.6938 23.069C18.6052 23.3076 18.5165 23.5463 18.4279 23.7849C18.3786 23.9176 18.3293 24.0503 18.28 24.183C18.2603 24.2361 18.2406 24.2892 18.2209 24.3422C18.1815 24.4484 18.142 24.5545 18.1026 24.6607C18.0928 24.687 18.0831 24.7132 18.073 24.7403C18.0533 24.7934 18.0336 24.8465 18.0139 24.8995C17.9646 25.0323 17.9153 25.1651 17.866 25.2978C17.7775 25.5359 17.6891 25.774 17.6006 26.0121C17.5517 26.1438 17.5028 26.2755 17.4539 26.4072C17.4442 26.4333 17.4345 26.4594 17.4245 26.4863C17.2915 26.8443 17.1586 27.2023 17.0259 27.5604C16.9521 27.7596 16.8782 27.9588 16.8043 28.1579C16.7546 28.2922 16.7048 28.4264 16.6551 28.5607C16.4542 29.1032 16.2521 29.6453 16.0466 30.1862C16.0263 30.2397 16.006 30.2932 15.9858 30.3468C15.7724 30.9121 15.5317 31.4222 15.1409 31.89C15.1106 31.9262 15.0803 31.9624 15.0492 31.9998C14.3449 32.8158 13.3296 33.3406 12.2655 33.4914C12.1266 33.5005 11.9884 33.5007 11.8492 33.4997C11.79 33.4997 11.79 33.4997 11.7297 33.4997C11.6007 33.4997 11.4717 33.4991 11.3427 33.4986C11.2527 33.4984 11.1627 33.4983 11.0727 33.4982C10.8369 33.498 10.6011 33.4973 10.3653 33.4964C10.1242 33.4957 9.88316 33.4954 9.6421 33.495C9.16992 33.4942 8.69774 33.493 8.22556 33.4914C8.3764 33.0569 8.52992 32.6237 8.69046 32.1927C8.70965 32.141 8.72884 32.0893 8.74802 32.0377C8.79848 31.9018 8.84903 31.7659 8.89961 31.6301C8.93101 31.5458 8.96239 31.4614 8.99376 31.3771C9.25804 30.6664 9.52311 29.9561 9.7906 29.2467C9.80343 29.2126 9.81627 29.1785 9.82949 29.1433C9.86497 29.0491 9.90055 28.955 9.93618 28.8608C9.94634 28.8338 9.95649 28.8069 9.96695 28.7791C10.0123 28.6596 10.0609 28.5469 10.1182 28.4323C9.55366 28.4323 8.98915 28.4323 8.40754 28.4323C8.37151 28.5524 8.33548 28.6725 8.29835 28.7963C8.27754 28.8581 8.25619 28.9197 8.23378 28.9809C8.22234 29.0123 8.2109 29.0436 8.19911 29.076C8.18706 29.1087 8.175 29.1413 8.16258 29.175C8.14324 29.2277 8.14324 29.2277 8.12352 29.2814C8.09632 29.3553 8.06907 29.4292 8.04176 29.5031C8.00087 29.6138 7.96033 29.7247 7.91982 29.8356C7.7959 30.1726 7.66858 30.5072 7.52308 30.8356C7.51165 30.8614 7.50023 30.8873 7.48845 30.9139C7.13473 31.6948 6.5233 32.3949 5.78701 32.8363C5.76443 32.8499 5.74185 32.8635 5.71859 32.8775C5.06938 33.2614 4.34849 33.5052 3.59062 33.4997C3.55151 33.4997 3.51241 33.4997 3.47211 33.4997C3.34431 33.4997 3.21651 33.4991 3.08871 33.4986C2.99952 33.4984 2.91033 33.4983 2.82114 33.4982C2.58749 33.498 2.35384 33.4973 2.12019 33.4964C1.88133 33.4957 1.64246 33.4954 1.4036 33.495C0.935734 33.4942 0.467867 33.493 0 33.4914C0.0186045 33.3436 0.0399884 33.2074 0.0923325 33.0678C0.109666 33.0209 0.109665 33.0209 0.127349 32.9732C0.140076 32.9396 0.152803 32.906 0.165916 32.8714C0.179424 32.8352 0.192933 32.7989 0.206851 32.7615C0.252162 32.64 0.29783 32.5186 0.34349 32.3973C0.376116 32.31 0.408714 32.2226 0.441287 32.1353C0.502545 31.9712 0.563877 31.807 0.62532 31.6429C0.747414 31.3168 0.868814 30.9905 0.98995 30.664C0.999443 30.6384 1.00894 30.6129 1.01872 30.5865C1.05752 30.4819 1.09632 30.3774 1.13511 30.2728C1.23526 30.0029 1.33553 29.733 1.43581 29.4631C1.48682 29.3259 1.53782 29.1886 1.58882 29.0513C1.59891 29.0242 1.609 28.997 1.6194 28.969C1.72897 28.6741 1.83852 28.3792 1.94805 28.0843C1.95779 28.0581 1.96752 28.0318 1.97755 28.0049C2.02665 27.8726 2.07575 27.7404 2.12485 27.6082C2.21349 27.3696 2.30213 27.131 2.39077 26.8923C2.44006 26.7596 2.48935 26.6269 2.53864 26.4942C2.55836 26.4411 2.57807 26.388 2.59778 26.3349C2.60754 26.3087 2.6173 26.2824 2.62736 26.2553C3.60323 23.6279 4.57911 21.0006 6.50129 15.8254C6.51104 15.7991 6.5208 15.7729 6.53086 15.7458C6.55057 15.6927 6.57028 15.6396 6.59 15.5866C6.63932 15.4538 6.68863 15.321 6.73795 15.1882C6.82627 14.9504 6.9146 14.7126 7.00296 14.4748C7.05175 14.3435 7.10053 14.2122 7.14931 14.0809C7.15899 14.0549 7.16867 14.0288 7.17864 14.002C7.31352 13.6389 7.44817 13.2758 7.58266 12.9125C7.65805 12.7089 7.7335 12.5054 7.80897 12.3018C7.86021 12.1635 7.91142 12.0253 7.96254 11.887C8.32431 10.9085 8.32431 10.9085 8.49825 10.471C8.51477 10.4292 8.51477 10.4292 8.53162 10.3866C8.76735 9.80165 9.10323 9.30961 9.53583 8.85089C9.55811 8.82626 9.5804 8.80162 9.60336 8.77625C10.2013 8.14006 11.0187 7.79039 11.8477 7.57757C11.8721 7.5713 11.8966 7.56502 11.9217 7.55856C12.1794 7.5066 12.4306 7.49911 12.6925 7.50008Z" fill="white"/>
<path d="M26.1684 7.54065C26.1924 7.54065 26.2165 7.54065 26.2412 7.54065C26.6224 8.60631 27.0027 9.67229 27.3809 10.739C27.6025 11.364 27.8242 11.989 28.0474 12.6134C28.058 12.6431 28.0686 12.6728 28.0796 12.7035C28.1461 12.8895 28.2126 13.0755 28.2791 13.2615C28.4074 13.6203 28.5357 13.979 28.6638 14.3377C28.6791 14.3803 28.6943 14.4229 28.7099 14.4667C28.9649 15.1805 29.2185 15.8947 29.4717 16.609C29.7278 17.3316 29.9855 18.0536 30.2446 18.7751C30.4583 19.3702 30.6703 19.9659 30.8811 20.5621C31.0886 21.1492 31.2976 21.7359 31.5073 22.3223C31.7707 23.0589 32.0329 23.796 32.2944 24.5334C32.516 25.1584 32.7377 25.7833 32.9609 26.4078C32.9715 26.4375 32.9821 26.4672 32.9931 26.4978C33.0595 26.6838 33.1261 26.8699 33.1926 27.0559C33.3209 27.4146 33.4492 27.7733 33.5773 28.1321C33.5925 28.1745 33.6077 28.217 33.6233 28.2607C33.8728 28.9591 34.1211 29.6579 34.369 30.3568C34.6035 31.0182 34.8382 31.6795 35.0741 32.3404C35.0854 32.3719 35.0966 32.4035 35.1082 32.4359C35.1394 32.5234 35.1707 32.6109 35.202 32.6984C35.2152 32.7356 35.2152 32.7356 35.2287 32.7735C35.2371 32.7969 35.2455 32.8203 35.2541 32.8444C35.2621 32.8669 35.2702 32.8895 35.2784 32.9128C35.2963 32.9614 35.3151 33.0097 35.3345 33.0578C35.3445 33.0829 35.3545 33.108 35.3649 33.1339C35.3741 33.1562 35.3833 33.1786 35.3928 33.2016C35.4174 33.2882 35.4164 33.3655 35.4131 33.4551C34.9255 33.4576 34.4379 33.4596 33.9503 33.4608C33.7238 33.4613 33.4974 33.4621 33.2709 33.4633C33.0519 33.4645 32.8329 33.4652 32.6139 33.4655C32.5308 33.4657 32.4477 33.466 32.3646 33.4666C31.7774 33.4707 31.21 33.4469 30.6497 33.2526C30.6232 33.2435 30.5966 33.2345 30.5693 33.2251C30.0459 33.0368 29.5749 32.7601 29.1529 32.3996C29.1164 32.3694 29.0799 32.3393 29.0423 32.3082C28.3361 31.6978 27.9569 30.8995 27.6509 30.0359C27.5982 29.8877 27.5449 29.7398 27.4916 29.5918C27.4217 29.3974 27.3519 29.2029 27.2825 29.0084C27.2716 28.978 27.2608 28.9477 27.2497 28.9165C27.2291 28.859 27.2086 28.8014 27.1882 28.7439C27.1388 28.604 27.1388 28.604 27.0783 28.4687C24.2198 28.4567 21.3612 28.4447 18.416 28.4324C18.4798 28.2199 18.5414 28.0159 18.6181 27.8094C18.6267 27.7861 18.6353 27.7628 18.6442 27.7389C18.6723 27.663 18.7005 27.5872 18.7288 27.5113C18.7489 27.4572 18.769 27.403 18.7891 27.3489C18.8312 27.2353 18.8735 27.1219 18.9158 27.0084C18.9687 26.8663 19.0215 26.7241 19.0742 26.5819C19.2764 26.0367 19.4803 25.4922 19.6919 24.9505C19.7156 24.8895 19.7156 24.8895 19.7397 24.8273C19.9388 24.3216 20.177 23.8649 20.527 23.446C20.5568 23.4102 20.5867 23.3744 20.6174 23.3375C21.27 22.5799 22.17 22.0766 23.1475 21.8809C23.1789 21.8746 23.2102 21.8682 23.2425 21.8616C23.5469 21.805 23.8486 21.7925 24.1575 21.7854C24.2081 21.784 24.2588 21.7826 24.3094 21.7811C24.4316 21.7777 24.5539 21.7746 24.6762 21.7718C24.3604 20.8903 24.0447 20.0088 23.7274 19.1279C23.6731 18.9772 23.6189 18.8264 23.5648 18.6756C23.4483 18.3514 23.3316 18.0275 23.2121 17.7044C23.1631 17.5718 23.1145 17.4391 23.0659 17.3063C23.0432 17.2449 23.0204 17.1835 22.9974 17.1223C22.9661 17.0388 22.9354 16.9551 22.9048 16.8713C22.8956 16.8471 22.8863 16.823 22.8768 16.7981C22.7934 16.566 22.8471 16.394 22.9323 16.1701C22.9562 16.1069 22.9562 16.1069 22.9806 16.0424C22.9983 15.9963 23.016 15.9501 23.0337 15.9039C23.0522 15.855 23.0708 15.806 23.0893 15.7571C23.1292 15.6517 23.1692 15.5464 23.2094 15.4411C23.3069 15.1853 23.4037 14.9291 23.5006 14.673C23.5231 14.6137 23.5455 14.5545 23.5679 14.4952C23.7969 13.8906 24.0223 13.2846 24.2467 12.6783C24.6085 11.7013 24.9741 10.7259 25.342 9.75124C25.3902 9.62374 25.4383 9.49624 25.4864 9.36873C25.5002 9.33218 25.5002 9.33218 25.5143 9.29489C25.7346 8.71099 25.9526 8.12621 26.1684 7.54065Z" fill="white"/>
<path d="M20.9174 7.51907C20.9558 7.51907 20.9941 7.51906 21.0337 7.51905C21.1599 7.51908 21.2861 7.51936 21.4124 7.51965C21.5001 7.51972 21.5879 7.51977 21.6757 7.5198C21.9062 7.51994 22.1367 7.5203 22.3673 7.5207C22.6027 7.52108 22.8381 7.52124 23.0736 7.52143C23.5352 7.52182 23.9968 7.52243 24.4584 7.5232C24.431 7.70306 24.3819 7.86371 24.3164 8.0329C24.2997 8.07672 24.2997 8.07672 24.2827 8.12142C24.2452 8.22008 24.2073 8.31864 24.1695 8.4172C24.1282 8.52553 24.087 8.63389 24.0457 8.74224C24.0155 8.8217 23.9852 8.90114 23.9549 8.98057C23.8342 9.29732 23.7147 9.61447 23.5955 9.9318C23.5643 10.0148 23.5331 10.0978 23.5019 10.1808C23.3777 10.5115 23.3777 10.5115 23.2536 10.8421C23.058 11.3638 22.8616 11.8851 22.6554 12.4028C22.641 12.439 22.6266 12.4753 22.6117 12.5126C22.1546 13.6502 21.3214 14.5261 20.1988 15.0271C19.6324 15.2666 19.0434 15.3913 18.4298 15.389C18.3733 15.389 18.3733 15.389 18.3156 15.389C18.192 15.389 18.0683 15.3887 17.9446 15.3884C17.8585 15.3884 17.7725 15.3883 17.6864 15.3883C17.4604 15.3881 17.2345 15.3878 17.0086 15.3874C16.7778 15.387 16.547 15.3868 16.3162 15.3867C15.8638 15.3863 15.4114 15.3857 14.959 15.3849C15.0215 15.195 15.0857 15.0061 15.1553 14.8186C15.1718 14.7741 15.1883 14.7296 15.2053 14.6838C15.2232 14.6358 15.2411 14.5877 15.259 14.5397C15.278 14.4886 15.2969 14.4374 15.3159 14.3863C15.3773 14.221 15.4388 14.0557 15.5004 13.8903C15.5216 13.8333 15.5428 13.7763 15.564 13.7193C15.6505 13.4869 15.737 13.2546 15.8236 13.0222C15.9347 12.7241 16.0455 12.426 16.1559 12.1276C16.2328 11.9194 16.3101 11.7113 16.3875 11.5033C16.4189 11.4187 16.4502 11.334 16.4814 11.2492C17.0449 9.72002 17.7722 8.57424 19.2901 7.85077C19.8008 7.62471 20.3617 7.51704 20.9174 7.51907Z" fill="white"/>
<path d="M58.615 11.94V28.5H55.471V21.492H49.975V28.5H46.831V11.94H49.975V18.756H55.471V11.94H58.615ZM70.144 25.284H64.456L63.448 28.5H60.136L66.016 11.94H68.584L74.488 28.5H71.152L70.144 25.284ZM69.304 22.668L67.288 16.308L65.296 22.668H69.304ZM76.0107 11.94H79.1547V25.764H86.4027V28.5H76.0107V11.94ZM88.3857 11.94H91.5297V25.764H98.7777V28.5H88.3857V11.94ZM111.639 11.94H114.783V28.5H111.639V11.94ZM126.441 25.284H120.753L119.745 28.5H116.433L122.313 11.94H124.881L130.785 28.5H127.449L126.441 25.284ZM125.601 22.668L123.585 16.308L121.593 22.668H125.601Z" fill="white"/>
<path d="M104.667 17.0781C104.69 17.0781 104.714 17.0781 104.738 17.0781C104.816 17.0781 104.894 17.0783 104.971 17.0785C105.025 17.0785 105.079 17.0786 105.133 17.0786C105.275 17.0787 105.417 17.0789 105.559 17.0791C105.704 17.0794 105.849 17.0795 105.994 17.0796C106.278 17.0798 106.562 17.0802 106.846 17.0807C106.829 17.1914 106.799 17.2902 106.758 17.3943C106.748 17.4213 106.748 17.4213 106.738 17.4488C106.715 17.5095 106.691 17.5702 106.668 17.6308C106.643 17.6975 106.617 17.7642 106.592 17.8309C106.573 17.8798 106.555 17.9286 106.536 17.9775C106.462 18.1724 106.388 18.3676 106.315 18.5629C106.296 18.614 106.276 18.6651 106.257 18.7162C106.181 18.9196 106.181 18.9196 106.104 19.1231C105.984 19.4441 105.863 19.7649 105.736 20.0835C105.727 20.1058 105.719 20.1281 105.709 20.1511C105.428 20.8511 104.915 21.3901 104.225 21.6984C103.876 21.8458 103.513 21.9226 103.136 21.9212C103.101 21.9212 103.101 21.9212 103.066 21.9212C102.99 21.9212 102.913 21.921 102.837 21.9208C102.784 21.9208 102.731 21.9207 102.678 21.9207C102.539 21.9206 102.4 21.9204 102.261 21.9202C102.119 21.9199 101.977 21.9198 101.835 21.9197C101.557 21.9195 101.278 21.9191 101 21.9186C101.038 21.8017 101.078 21.6855 101.121 21.5701C101.131 21.5428 101.141 21.5154 101.152 21.4872C101.163 21.4576 101.174 21.4281 101.185 21.3985C101.196 21.367 101.208 21.3356 101.22 21.3041C101.257 21.2024 101.295 21.1006 101.333 20.9989C101.346 20.9638 101.359 20.9287 101.372 20.8936C101.426 20.7507 101.479 20.6077 101.532 20.4647C101.6 20.2812 101.669 20.0978 101.737 19.9141C101.784 19.786 101.831 19.658 101.879 19.53C101.898 19.4779 101.918 19.4258 101.937 19.3736C102.284 18.4326 102.731 17.7275 103.665 17.2823C103.98 17.1432 104.325 17.0769 104.667 17.0781Z" fill="white"/>
</svg>
